<svg xmlns="http://www.w3.org/2000/svg" width="225" height="541" viewBox="0 0 225 541" class="tw-absolute tw-pin-b tw-opacity-50" style="left: 50%; margin-left: -105px;"><g fill="none" fill-rule="evenodd"><g opacity=".1" transform="translate(8 8)"><circle cx="104.5" cy="104.5" r="104.5" stroke="#FFF" stroke-width="15"></circle> <path fill="#FFF" d="M62.305 172.96C38.18 158.944 21.96 132.823 21.96 102.914c0-44.71 36.244-80.954 80.954-80.954 29.91 0 56.03 16.22 70.046 40.345-11.937-6.936-25.809-10.907-40.609-10.907-44.709 0-80.953 36.244-80.953 80.953 0 14.8 3.971 28.672 10.907 40.61z" opacity=".4"></path> <path stroke="#FFF" stroke-width="15" d="M105 209v336.5"></path></g> <g fill-rule="nonzero" opacity=".03"><path fill="#FFF" d="M92.015 156.977v-25.06h9.147v10.493l45.397-21.924a22.682 22.682 0 0 0 3.209-1.759c-.334-.241-.68-.465-1.037-.67l-47.577-24.162v15.176h-9.146V79l61.09 31.023c2.249 1.234 7.417 4.638 6.86 9.481-.518 4.637-6.234 7.82-9.657 9.32L92 157l.015-.023z"></path> <path fill="#FFF" d="M115.007 128h-33c-1.66 0-3.007-1.12-3.007-2.5s1.346-2.5 3.007-2.5h32.986c1.66 0 3.007 1.12 3.007 2.5s-1.346 2.5-3.007 2.5h.014zM127.874 118H95.126c-1.727 0-3.126-1.12-3.126-2.5s1.4-2.5 3.126-2.5h32.748c1.727 0 3.126 1.12 3.126 2.5s-1.4 2.5-3.126 2.5z"></path> <path fill="#00CECF" d="M73.013 129h-6.026A2.994 2.994 0 0 1 64 126c0-1.657 1.337-3 2.987-3h6.026A2.994 2.994 0 0 1 76 126c0 1.657-1.337 3-2.987 3zM85.013 119h-6.026A2.994 2.994 0 0 1 76 116c0-1.657 1.337-3 2.987-3h6.026A2.994 2.994 0 0 1 88 116c0 1.657-1.337 3-2.987 3z"></path> <path fill="#FFF" d="M91.015 156.977v-25.06h9.012v10.493l44.73-21.924a22.25 22.25 0 0 0 3.161-1.759c-.328-.241-.67-.465-1.021-.67l-46.878-24.162v15.176h-9.011V79l60.192 31.023c2.215 1.234 7.307 4.638 6.759 9.481-.51 4.637-6.143 7.82-9.515 9.32L91 157l.015-.023z"></path> <path fill="#FFF" d="M115.93 129H82.085c-1.703 0-3.084-1.343-3.084-3s1.381-3 3.084-3h33.832c1.703 0 3.084 1.343 3.084 3s-1.381 3-3.084 3h.015zM127.794 119H94.206c-1.77 0-3.206-1.343-3.206-3s1.435-3 3.206-3h33.588c1.77 0 3.206 1.343 3.206 3s-1.435 3-3.206 3z"></path></g></g></svg>